<?xml version="1.0" encoding="utf-8"?>
<!-- Generator: Adobe Illustrator 22.1.0, SVG Export Plug-In . SVG Version: 6.00 Build 0)  -->
<svg version="1.1" id="图层_1" xmlns="http://www.w3.org/2000/svg" xmlns:xlink="http://www.w3.org/1999/xlink" x="0px" y="0px"
	 viewBox="0 0 1024 1024" style="enable-background:new 0 0 1024 1024;" xml:space="preserve">
<style type="text/css">
	.st0{stroke:#000000;stroke-width:5;stroke-miterlimit:10;}
	.st1{fill:none;stroke:#000000;stroke-width:35;stroke-miterlimit:10;}
	.st2{fill:#FFFFFF;}
</style>
<g>
	<path class="st2" d="M617.3,476.9c50.6,0,91.7-41.1,91.7-91.7c0-50.6-41.1-91.7-91.7-91.7c-49.1,0-89.3,38.8-91.6,87.3l-95.2,55.1
		c-16.8-18.5-41-30.2-67.9-30.2c-50.6,0-91.7,41.1-91.7,91.7c0,50.6,41.1,91.7,91.7,91.7c27.1,0,51.5-11.8,68.3-30.6l95.3,53.6
		c-0.4,3.4-0.6,6.8-0.6,10.3c0,50.6,41.1,91.7,91.7,91.7c50.6,0,91.7-41.1,91.7-91.7c0-50.6-41.1-91.7-91.7-91.7
		c-30.6,0-57.7,15-74.3,38.1l-91-51.2c1.5-6.5,2.3-13.3,2.3-20.2c0-7.1-0.8-14.1-2.4-20.7l84.3-48.8
		C551.6,457,582.1,476.9,617.3,476.9z M617.3,342.1c23.8,0,43.1,19.3,43.1,43.1c0,23.8-19.3,43.1-43.1,43.1s-43.1-19.3-43.1-43.1
		C574.2,361.4,593.5,342.1,617.3,342.1z M362.5,540.6c-23.8,0-43.1-19.3-43.1-43.1c0-23.8,19.3-43.1,43.1-43.1
		c23.8,0,43.1,19.3,43.1,43.1C405.7,521.2,386.3,540.6,362.5,540.6z M617.3,579.4c23.8,0,43.1,19.3,43.1,43.1
		c0,23.8-19.3,43.1-43.1,43.1s-43.1-19.3-43.1-43.1C574.2,598.7,593.5,579.4,617.3,579.4z"/>
	<path class="st2" d="M794.8,229.2C719.3,153.6,618.8,112,512,112c-106.8,0-207.3,41.6-282.9,117.2C153.9,304,111.7,405.9,112,512
		c0,77.9,22.4,153.3,64.7,218.2c5.3,8.7,14.8,13.9,25,13.4c10.2-0.4,19.3-6.4,23.8-15.5c4.5-9.1,3.6-20-2.2-28.3
		C186.9,644,167.6,578.7,167.7,512c0-189.9,154.4-344.3,344.3-344.3c189.8,0,344.3,154.5,344.3,344.3S701.8,856.4,512,856.4
		c-62.9,0-124.4-17.1-177.9-49.4c-13.1-7.3-29.6-3-37.4,9.9c-7.8,12.8-4,29.5,8.6,37.7c62.4,37.7,133.8,57.5,206.7,57.5
		c106.8,0,207.3-41.6,282.8-117.2C870.4,719.3,912,618.8,912,512C912,405.2,870.4,304.7,794.8,229.2z"/>
</g>
</svg>
